<svg width="32" height="32" viewBox="0 0 32 32" fill="none" xmlns="http://www.w3.org/2000/svg">
<path d="M28.0295 3.04069C29.477 3.84095 30.4826 4.9583 31.1194 6.2476C31.4081 6.64789 31.9857 7.90537 31.9857 9.73303C32.0681 11.327 31.7915 12.9811 31.2488 14.5123C29.4358 19.6238 23.5804 24.3227 19.1881 27.387C18.3388 27.9794 17.4072 28.6378 16.5186 29.1628C16.231 29.3321 16.0989 29.4988 15.7648 29.3321C14.9475 28.9248 13.838 28.0925 13.062 27.5551C8.78806 24.5953 3.09277 20.0474 1.05421 15.2361C0.3128 13.4865 -0.0905971 11.5401 0.0172805 9.67288C0.109674 8.26852 0.645509 6.80465 0.901877 6.24826C1.39615 5.27082 2.1088 4.38295 3.07512 3.64154C6.95152 0.667385 12.6906 1.93707 15.2601 5.91939C15.5366 6.34894 15.7217 6.8746 15.9701 7.33488C16.0067 7.40287 16.0296 7.35907 16.0518 7.32442C16.1362 7.19235 16.1976 6.92102 16.2741 6.7713C18.4258 2.55296 23.7242 0.661501 28.0295 3.04069Z" fill="#C34A51"/>
</svg>
