<svg width="497" height="425" viewBox="0 0 497 425" fill="none" xmlns="http://www.w3.org/2000/svg">
<path d="M434.747 16.1415C457.198 28.5537 472.795 45.8842 482.672 65.8817C487.151 72.0902 496.108 91.5942 496.108 119.942C497.386 144.665 493.096 170.321 484.68 194.07C456.559 273.35 365.739 346.232 297.614 393.761C284.441 402.949 269.991 413.16 256.209 421.303C251.747 423.93 249.699 426.516 244.517 423.93C231.841 417.612 214.633 404.703 202.595 396.367C136.306 350.46 47.9699 279.922 16.3512 205.296C4.85163 178.16 -1.40519 147.971 0.268027 119.009C1.70109 97.2267 10.0121 74.5216 13.9884 65.8918C21.6548 50.7315 32.7082 36.9604 47.6961 25.4608C107.82 -20.6693 196.836 -0.976019 236.689 60.791C240.978 67.4535 243.848 75.6066 247.701 82.7457C248.269 83.8003 248.624 83.1209 248.969 82.5834C250.277 80.535 251.23 76.3266 252.417 74.0044C285.79 8.57653 367.97 -20.7605 434.747 16.1415Z" fill="#C34A51"/>
<path d="M435.016 176.747C415.615 205.803 373.886 232.448 341.856 245.336C258.397 278.921 133.009 268.901 65.229 205.711C62.2244 202.905 56.4438 198.024 56.4438 193.83C56.8557 187.714 62.3922 184.831 68.0964 186.356C70.5825 187.012 86.9938 201.471 91.2034 204.46C119.069 224.181 152.441 237.542 186.102 243.506C224.812 250.354 258.473 252.032 281.519 214.878C302.689 180.774 294.91 124.25 342.1 111.651C387.491 99.5413 412.84 145.511 404.725 185.09C411.833 181.506 427.756 150.071 436.968 164.774C440.385 170.235 438.021 172.263 435.016 176.747Z" fill="white"/>
<path d="M347.667 129.169C320.564 135.621 318.642 164.752 312.389 186.624C305.937 209.181 297.274 230.458 278.682 245.649C281.427 246.351 285.347 245.375 288.153 244.826C295.886 243.331 320.076 237.901 325.078 233.326C333.818 225.333 342.908 200.381 345.379 188.713C346.538 183.283 344.525 173.827 352.578 172.149C362.309 170.121 362.629 180.08 362.156 186.944C361.302 199.618 355.796 213.01 350.793 224.51C351.815 225.745 377.103 210.036 378.613 208.541C383.875 203.34 389.274 185.007 389.93 177.61C392.264 151.163 378.552 121.802 347.652 129.154L347.667 129.169Z" fill="#C34A51"/>
</svg>
