<svg width="174" height="56" viewBox="0 0 174 56" fill="none" xmlns="http://www.w3.org/2000/svg">
<path d="M164.813 0H174L171.669 17.4952H167.144L164.813 0ZM173.493 19.2177V25.1282H165.32V19.2177H173.493Z" fill="#C34A51"/>
<path d="M133.516 5.94432V0H163.102V5.94432H152.26V25.1282H144.323V5.94432H133.516Z" fill="#C34A51"/>
<path d="M129.648 25.1282L127.284 20.5349H112.051L109.788 25.1282H101.784L114.483 0H124.683L138.125 25.1282H129.648ZM114.855 14.8608H124.379L119.516 5.4377L114.855 14.8608Z" fill="#C34A51"/>
<path d="M74.3673 0H100.847V5.70789H82.1354V9.42309H100.407V15.1648H82.1354V19.2853H101.184V25.1282H74.3673V0Z" fill="#C34A51"/>
<path d="M164.786 30.1234H173.973L171.642 47.6186H167.116L164.786 30.1234ZM173.466 49.3411V55.2517H165.293V49.3411H173.466Z" fill="#C34A51"/>
<path d="M133.488 36.0677V30.1234H163.075V36.0677H152.233V55.2517H144.296V36.0677H133.488Z" fill="#C34A51"/>
<path d="M129.621 55.2517L127.256 50.6583H112.024L109.761 55.2517H101.757L114.456 30.1234H124.656L138.098 55.2517H129.621ZM114.827 44.9842H124.352L119.488 35.5611L114.827 44.9842Z" fill="#C34A51"/>
<path d="M74.3398 30.1234H100.819V35.8313H82.108V39.5465H100.38V45.2882H82.108V49.4087H101.157V55.2517H74.3398V30.1234Z" fill="#C34A51"/>
<path d="M57.1163 2.12064C60.066 3.75134 62.115 6.02819 63.4126 8.65543C64.0011 9.4711 65.1779 12.0335 65.1779 15.7578C65.3458 19.0058 64.7822 22.3765 63.6764 25.4967C59.982 35.9123 48.0502 45.4874 39.1 51.7317C37.3694 52.9388 35.4709 54.2804 33.6604 55.3502C33.0742 55.6952 32.8051 56.035 32.1243 55.6952C30.4589 54.8652 28.1981 53.1692 26.6167 52.0741C17.9076 46.0429 6.30221 36.7757 2.14819 26.9715C0.637399 23.4063 -0.184612 19.4402 0.0352129 15.6352C0.223486 12.7735 1.31537 9.79053 1.83777 8.65676C2.84497 6.66502 4.29715 4.8558 6.26624 3.345C14.1653 -2.7155 25.8599 -0.128228 31.0958 7.98663C31.6593 8.86193 32.0363 9.93308 32.5426 10.871C32.6172 11.0096 32.6638 10.9203 32.7091 10.8497C32.881 10.5806 33.0062 10.0277 33.1621 9.72258C37.5466 1.12677 48.3433 -2.72749 57.1163 2.12064Z" fill="#C34A51"/>
<path d="M57.1518 23.2208C54.6029 27.0381 49.1205 30.5387 44.9126 32.2319C33.9478 36.6443 17.4746 35.3278 8.56971 27.0261C8.17496 26.6574 7.41553 26.0161 7.41553 25.4651C7.46963 24.6616 8.19701 24.2829 8.94643 24.4832C9.27305 24.5694 11.4291 26.469 11.9822 26.8617C15.6431 29.4527 20.0274 31.208 24.4498 31.9915C29.5354 32.8912 33.9578 33.1116 36.9855 28.2303C39.7668 23.7499 38.7449 16.3238 44.9446 14.6686C50.9079 13.0776 54.2382 19.1171 53.1722 24.3169C54.106 23.846 56.1979 19.7162 57.4082 21.6479C57.8571 22.3652 57.5465 22.6317 57.1518 23.2208Z" fill="white"/>
<path d="M45.676 16.97C42.1152 17.8176 41.8627 21.6449 41.0412 24.5183C40.1936 27.4819 39.0554 30.2772 36.6128 32.273C36.9735 32.3652 37.4885 32.2369 37.8571 32.1648C38.8731 31.9684 42.0511 31.2551 42.7083 30.6539C43.8565 29.604 45.0508 26.3257 45.3754 24.7928C45.5277 24.0795 45.2632 22.8371 46.3212 22.6167C47.5996 22.3502 47.6417 23.6587 47.5796 24.5604C47.4674 26.2256 46.744 27.9849 46.0867 29.4958C46.221 29.6581 49.5433 27.5941 49.7417 27.3978C50.433 26.7145 51.1423 24.3059 51.2285 23.3341C51.5351 19.8595 49.7337 16.0022 45.674 16.968L45.676 16.97Z" fill="#C34A51"/>
</svg>
