<svg width="273" height="88" viewBox="0 0 273 88" fill="none" xmlns="http://www.w3.org/2000/svg">
<path d="M258.586 0H273L269.343 27.4494H262.243L258.586 0ZM272.205 30.1519V39.4253H259.381V30.1519H272.205Z" fill="#C34A51"/>
<path d="M209.481 9.32643V0H255.901V9.32643H238.891V39.4253H226.438V9.32643H209.481Z" fill="#C34A51"/>
<path d="M203.413 39.4253L199.704 32.2186H175.805L172.254 39.4253H159.695L179.62 0H195.623L216.714 39.4253H203.413ZM180.203 23.3161H195.146L187.516 8.53156L180.203 23.3161Z" fill="#C34A51"/>
<path d="M116.68 0H158.225V8.95549H128.868V14.7845H157.536V23.793H128.868V30.2579H158.755V39.4253H116.68V0Z" fill="#C34A51"/>
<path d="M258.543 47.2627H272.957L269.301 74.7121H262.2L258.543 47.2627ZM272.162 77.4146V86.688H259.338V77.4146H272.162Z" fill="#C34A51"/>
<path d="M209.438 56.5891V47.2627H255.859V56.5891H238.848V86.688H226.395V56.5891H209.438Z" fill="#C34A51"/>
<path d="M203.37 86.688L199.661 79.4813H175.762L172.212 86.688H159.653L179.577 47.2627H195.581L216.671 86.688H203.37ZM180.16 70.5788H195.104L187.473 55.7943L180.16 70.5788Z" fill="#C34A51"/>
<path d="M116.636 47.2627H158.181V56.2182H128.824V62.0472H157.493V71.0557H128.824V77.5206H158.711V86.688H116.636V47.2627Z" fill="#C34A51"/>
<path d="M89.6136 3.32722C94.2415 5.88573 97.4563 9.45803 99.4923 13.5801C100.415 14.8598 102.262 18.8801 102.262 24.7234C102.525 29.8195 101.641 35.1079 99.9061 40.0034C94.1098 56.3452 75.3892 71.3681 61.3466 81.1653C58.6313 83.0591 55.6527 85.164 52.812 86.8425C51.8923 87.3839 51.47 87.9169 50.4019 87.3839C47.789 86.0816 44.2418 83.4207 41.7606 81.7025C28.0964 72.2398 9.88795 57.6997 3.37044 42.3173C1.00006 36.7237 -0.289649 30.5009 0.0552478 24.5311C0.350642 20.0412 2.06377 15.361 2.88341 13.5822C4.46366 10.4572 6.74207 7.61857 9.83152 5.24819C22.2248 -4.26052 40.5734 -0.201185 48.7882 12.5307C49.6724 13.9041 50.2639 15.5847 51.0582 17.0562C51.1753 17.2736 51.2485 17.1336 51.3195 17.0228C51.5892 16.6005 51.7857 15.7331 52.0302 15.2544C58.9094 1.76786 75.849 -4.27933 89.6136 3.32722Z" fill="#C34A51"/>
<path d="M89.6692 36.4324C85.6702 42.4215 77.0685 47.9139 70.4663 50.5705C53.263 57.4933 27.4171 55.4278 13.4456 42.4027C12.8263 41.8242 11.6348 40.8182 11.6348 39.9536C11.7197 38.6929 12.8609 38.0987 14.0367 38.4131C14.5491 38.5483 17.932 41.5287 18.7997 42.1449C24.5436 46.2099 31.4224 48.964 38.3609 50.1932C46.3401 51.6048 53.2787 51.9507 58.0291 44.2922C62.3928 37.2624 60.7894 25.6112 70.5166 23.0143C79.8728 20.5181 85.098 29.9938 83.4254 38.1521C84.8905 37.4133 88.1727 30.9338 90.0716 33.9645C90.7758 35.09 90.2885 35.5081 89.6692 36.4324Z" fill="white"/>
<path d="M71.664 26.6249C66.0773 27.9548 65.6812 33.9596 64.3922 38.468C63.0623 43.1178 61.2766 47.5035 57.4442 50.6348C58.0101 50.7794 58.8181 50.5782 59.3966 50.465C60.9905 50.1569 65.9767 49.0377 67.0079 48.0945C68.8094 46.4471 70.6831 41.3037 71.1924 38.8987C71.4314 37.7794 71.0164 35.8302 72.6764 35.4844C74.6822 35.0663 74.7482 37.1192 74.6507 38.534C74.4747 41.1465 73.3397 43.9069 72.3085 46.2774C72.5192 46.532 77.7317 43.2938 78.043 42.9857C79.1276 41.9137 80.2405 38.1347 80.3757 36.6099C80.8567 31.1584 78.0304 25.1064 71.6609 26.6218L71.664 26.6249Z" fill="#C34A51"/>
</svg>
